<svg width="16" height="16" viewBox="0 0 16 16" fill="none" xmlns="http://www.w3.org/2000/svg">
<path fill-rule="evenodd" clip-rule="evenodd" d="M4.83302 4.83334V4.75343C4.83302 3.30826 5.81143 2.04644 7.21105 1.68653C7.72839 1.5535 8.27098 1.5535 8.78831 1.68653C10.1879 2.04644 11.1664 3.30827 11.1664 4.75343V4.83334H12.1671C12.548 4.83334 12.8712 5.11267 12.9264 5.4895L13.0722 6.48446C13.3592 8.44344 13.3592 10.4338 13.0722 12.3927C12.9336 13.3388 12.1707 14.0701 11.2197 14.1688L10.8004 14.2122C8.93826 14.4054 7.06111 14.4054 5.19893 14.2122L4.77968 14.1688C3.82866 14.0701 3.0658 13.3388 2.92719 12.3928C2.64016 10.4338 2.64016 8.44343 2.92719 6.48446L3.07297 5.4895C3.12818 5.11266 3.45141 4.83334 3.83227 4.83334H4.83302ZM7.4601 2.65503C7.81406 2.56401 8.18531 2.56401 8.53927 2.65503C9.49691 2.90128 10.1664 3.76463 10.1664 4.75343V4.83334H5.83302V4.75343C5.83302 3.76463 6.50245 2.90128 7.4601 2.65503ZM4.83302 5.83334V7.33334C4.83302 7.60949 5.05688 7.83334 5.33302 7.83334C5.60916 7.83334 5.83302 7.60949 5.83302 7.33334V5.83334H10.1664V7.33334C10.1664 7.60949 10.3902 7.83334 10.6664 7.83334C10.9425 7.83334 11.1664 7.60949 11.1664 7.33334V5.83334H11.9661L12.0827 6.62944C12.3557 8.49227 12.3557 10.3849 12.0827 12.2478C12.0104 12.7412 11.6126 13.1227 11.1165 13.1741L10.6973 13.2176C8.90369 13.4036 7.09567 13.4036 5.30208 13.2176L4.88283 13.1741C4.3868 13.1227 3.98892 12.7412 3.91662 12.2478C3.64368 10.3849 3.64368 8.49227 3.91662 6.62943L4.03326 5.83334H4.83302Z" fill="white"/>
</svg>
