<svg width="18" height="18" viewBox="0 0 18 18" fill="none" xmlns="http://www.w3.org/2000/svg">
<path fill-rule="evenodd" clip-rule="evenodd" d="M10.1677 4.15068C9.51476 3.52416 8.48387 3.52416 7.83095 4.15068L4.36112 7.48018C4.2761 7.56175 4.21892 7.66802 4.19767 7.78391C3.78207 10.0503 3.75139 12.3705 4.10692 14.6471L4.19131 15.1875H6.42366V10.529C6.42366 10.2183 6.6755 9.96649 6.98616 9.96649H11.0125C11.3231 9.96649 11.575 10.2183 11.575 10.529V15.1875H13.8073L13.8917 14.6471C14.2472 12.3705 14.2166 10.0503 13.801 7.78391C13.7797 7.66802 13.7225 7.56175 13.6375 7.48018L10.1677 4.15068ZM7.05204 3.33894C8.14024 2.29474 9.85838 2.29474 10.9466 3.33894L14.4164 6.66844C14.6718 6.91353 14.8437 7.2328 14.9075 7.58099C15.3459 9.97171 15.3783 12.4192 15.0032 14.8207L14.8677 15.6888C14.8116 16.0478 14.5024 16.3125 14.139 16.3125H11.0125C10.7018 16.3125 10.45 16.0606 10.45 15.75V11.0915H7.54866V15.75C7.54866 16.0606 7.29682 16.3125 6.98616 16.3125H3.85961C3.49625 16.3125 3.18703 16.0478 3.13097 15.6888L2.9954 14.8207C2.62036 12.4192 2.65272 9.97171 3.09112 7.58099C3.15497 7.2328 3.32678 6.91353 3.58221 6.66843L7.05204 3.33894Z" fill="white"/>
</svg>
